<svg baseProfile="full" height="200" version="1.1" width="200" xmlns="http://www.w3.org/2000/svg" xmlns:ev="http://www.w3.org/2001/xml-events" xmlns:xlink="http://www.w3.org/1999/xlink"><defs><style type="text/css"><![CDATA[.background path {fill: #808080; fill-opacity: 0}.background path:nth-child(odd) {fill-opacity: .1}.axes {font-size: 14px}.x-axis .tick .lab {font-weight: bold; dominant-baseline: hanging}.axes, .tree {font-size: 14px; text-anchor: middle}.axes line, .edge {stroke: black; fill: none}.axes .ax-skip {stroke-dasharray: 4}.y-axis .grid {stroke: #FAFAFA}.node > .sym {fill: black; stroke: none}.site > .sym {stroke: black}.mut text {fill: red; font-style: italic}.mut.extra text {fill: hotpink}.mut line {fill: none; stroke: none}.mut .sym {fill: none; stroke: red}.mut.extra .sym {stroke: hotpink}.node .mut .sym {stroke-width: 1.5px}.tree text, .tree-sequence text {dominant-baseline: central}.plotbox .lab.lft {text-anchor: end}.plotbox .lab.rgt {text-anchor: start}]]></style></defs><g class="tree-sequence"><g class="background"><path d="M20,0 l160,0 l0,138.2 l0,25 l0,5 l-160,0 l0,-5 l0,-25 l0,-138.2z" /></g><g class="axes"><g class="x-axis"><g class="title" transform="translate(100 200)"><text class="lab" text-anchor="middle" transform="translate(0 -11)">Genome position</text></g><line class="ax-line" x1="20" x2="180" y1="163.2" y2="163.2" /><g class="ticks"><g class="tick" transform="translate(20 163.2)"><line x1="0" x2="0" y1="0" y2="5" /><g transform="translate(0 6)"><text class="lab">0</text></g></g></g><g class="site s0" transform="translate(70.368 163.2)"><line class="sym" x1="0" x2="0" y1="0" y2="-10" /><g class="mut m0"><polyline class="sym" points="2.5,-6.5 0,-1.5 -2.5,-6.5" /></g></g></g></g><g class="plotbox trees"><g class="tree t-1" transform="translate(20 0)"><g class="plotbox"><g class="c2 m0 node n811 p0 root s0" transform="translate(96.125 116.707)"><g class="a811 c2 node n727 p0" transform="translate(-31.875 1.01676)"><g class="a727 c2 node n585 p0" transform="translate(20.25 1.07542)"><g class="a585 i10 leaf node n2 p0 sample" transform="translate(-10.5 2.60055)"><path class="edge" d="M 0 0 V -2.60055 H 10.5" /><rect class="sym" height="6" width="6" x="-3" y="-3" /><text class="lab" transform="translate(0 11)">2</text></g><g class="a585 c2 node n218 p0" transform="translate(10.5 1.77933)"><g class="a218 i8 leaf node n4 p0 sample" transform="translate(-9 0.801674)"><path class="edge" d="M 0 0 V -0.801674 H 9" /><rect class="sym" height="6" width="6" x="-3" y="-3" /><text class="lab" transform="translate(0 11)">4</text></g><g class="a218 c2 i0 node n21 p0" transform="translate(9 0.64525)"><g class="a21 i8 leaf node n5 p0 sample" transform="translate(-6 0.156424)"><path class="edge" d="M 0 0 V -0.156424 H 6" /><rect class="sym" height="6" width="6" x="-3" y="-3" /><text class="lab" transform="translate(0 11)">5</text></g><g class="a21 i9 leaf node n8 p0 sample" transform="translate(6 0.156424)"><path class="edge" d="M 0 0 V -0.156424 H -6" /><rect class="sym" height="6" width="6" x="-3" y="-3" /><text class="lab" transform="translate(0 11)">8</text></g><path class="edge" d="M 0 0 V -0.64525 H -9" /><circle class="sym" cx="0" cy="0" r="3" /><text class="lab rgt" transform="translate(3 -7.0)">21</text></g><path class="edge" d="M 0 0 V -1.77933 H -10.5" /><circle class="sym" cx="0" cy="0" r="3" /><text class="lab rgt" transform="translate(3 -7.0)">218</text></g><path class="edge" d="M 0 0 V -1.07542 H -20.25" /><circle class="sym" cx="0" cy="0" r="3" /><text class="lab rgt" transform="translate(3 -7.0)">585</text></g><g class="a727 c2 node n636 p0" transform="translate(-20.25 0.723462)"><g class="a636 c2 node n247 p0" transform="translate(-12 2.07262)"><g class="a247 i4 leaf node n0 p0 sample" transform="translate(-6 0.879886)"><path class="edge" d="M 0 0 V -0.879886 H 6" /><rect class="sym" height="6" width="6" x="-3" y="-3" /><text class="lab" transform="translate(0 11)">0</text></g><g class="a247 i4 leaf node n1 p0 sample" transform="translate(6 0.879886)"><path class="edge" d="M 0 0 V -0.879886 H -6" /><rect class="sym" height="6" width="6" x="-3" y="-3" /><text class="lab" transform="translate(0 11)">1</text></g><path class="edge" d="M 0 0 V -2.07262 H 12" /><circle class="sym" cx="0" cy="0" r="3" /><text class="lab lft" transform="translate(-3 -7.0)">247</text></g><g class="a636 c2 node n484 p0" transform="translate(12 1.01676)"><g class="a484 i10 leaf node n3 p0 sample" transform="translate(-6 1.93575)"><path class="edge" d="M 0 0 V -1.93575 H 6" /><rect class="sym" height="6" width="6" x="-3" y="-3" /><text class="lab" transform="translate(0 11)">3</text></g><g class="a484 i3 leaf node n7 p0 sample" transform="translate(6 1.89664)"><path class="edge" d="M 0 0 V -1.89664 H -6" /><rect class="sym" height="6" width="6" x="-3" y="-3" /><text class="lab" transform="translate(0 11)">7</text></g><path class="edge" d="M 0 0 V -1.01676 H -12" /><circle class="sym" cx="0" cy="0" r="3" /><text class="lab rgt" transform="translate(3 -7.0)">484</text></g><path class="edge" d="M 0 0 V -0.723462 H 20.25" /><circle class="sym" cx="0" cy="0" r="3" /><text class="lab lft" transform="translate(-3 -7.0)">636</text></g><path class="edge" d="M 0 0 V -1.01676 H 31.875" /><circle class="sym" cx="0" cy="0" r="3" /><text class="lab lft" transform="translate(-3 -7.0)">727</text></g><g class="a811 c2 node n761 p0" transform="translate(31.875 0.64525)"><g class="a761 i3 leaf node n6 p0 sample" transform="translate(-6 4.00837)"><path class="edge" d="M 0 0 V -4.00837 H 6" /><rect class="sym" height="6" width="6" x="-3" y="-3" /><text class="lab" transform="translate(0 11)">6</text></g><g class="a761 i9 leaf node n9 p0 sample" transform="translate(6 4.02792)"><path class="edge" d="M 0 0 V -4.02792 H -6" /><rect class="sym" height="6" width="6" x="-3" y="-3" /><text class="lab" transform="translate(0 11)">9</text></g><path class="edge" d="M 0 0 V -0.64525 H -31.875" /><circle class="sym" cx="0" cy="0" r="3" /><text class="lab rgt" transform="translate(3 -7.0)">761</text></g><path class="edge" d="M 0 0 V -106.707 H 0" /><g class="mut m0 s0" transform="translate(0 -106.707)"><line x1="0" x2="0" y1="0" y2="106.707" /><path class="sym" d="M -3,-3 l 6,6 M -3,3 l 6,-6" /><text class="lab rgt" transform="translate(5 0)">0</text></g><circle class="sym" cx="0" cy="0" r="3" /><text class="lab rgt" transform="translate(3 -7.0)">811</text></g></g></g></g></g></svg>